<svg xmlns="http://www.w3.org/2000/svg" width="400" height="400" viewBox="0 0 400 400"><rect width="100%" height="100%" fill="#8B5A3C"/><path fill="#FFFFFF" d="M99.4 184.735h4.15v25.31h-2.42q-.56 0-.93-.18-.38-.19-.73-.63l-13.21-16.87q.1 1.16.1 2.14v15.54h-4.14v-25.31h2.46q.3 0 .52.03t.38.11q.17.07.33.22t.35.4l13.26 16.94q-.05-.62-.08-1.21-.04-.6-.04-1.1zm18.59 20.67v-3.03q-1.88.09-3.15.33-1.28.23-2.05.6t-1.1.86q-.34.49-.34 1.07 0 1.13.68 1.62.67.49 1.76.49 1.33 0 2.3-.48t1.9-1.46m-9.14-9.43-.77-1.38q3.1-2.84 7.46-2.84 1.57 0 2.81.52 1.25.51 2.1 1.43.86.92 1.31 2.2.44 1.28.44 2.8v11.34h-1.96q-.61 0-.94-.18-.33-.19-.53-.75l-.38-1.29q-.68.61-1.33 1.07-.65.47-1.35.78-.7.32-1.5.48-.79.17-1.75.17-1.14 0-2.1-.31-.97-.3-1.67-.92-.7-.61-1.08-1.52-.39-.91-.39-2.12 0-.68.23-1.35.23-.68.74-1.29.52-.61 1.34-1.15.83-.55 2.02-.95 1.2-.4 2.8-.65 1.59-.26 3.64-.31v-1.05q0-1.8-.77-2.67t-2.23-.87q-1.05 0-1.74.25-.69.24-1.21.55-.53.31-.96.55-.43.25-.95.25-.46 0-.77-.24-.32-.24-.51-.55m23.4 14.35q-2.35 0-3.6-1.32t-1.25-3.65v-10.03h-1.84q-.35 0-.59-.23-.25-.22-.25-.68v-1.71l2.89-.48.91-4.9q.09-.35.33-.54.25-.19.63-.19h2.24v5.65h4.8v3.08h-4.8v9.73q0 .84.41 1.31.42.48 1.13.48.41 0 .68-.1t.47-.2l.36-.2q.16-.1.31-.1.2 0 .32.1.12.09.26.29l1.3 2.1q-.95.78-2.17 1.19-1.23.4-2.54.4m18.18-18.24h4.32v17.96h-2.64q-.86 0-1.08-.79l-.3-1.43q-1.1 1.12-2.43 1.81t-3.14.69q-1.47 0-2.6-.5-1.12-.5-1.89-1.41t-1.17-2.16q-.39-1.25-.39-2.76v-11.41h4.32v11.41q0 1.65.76 2.55t2.29.9q1.12 0 2.1-.5t1.85-1.37zm12.41 1.09.26 2.03q.84-1.61 2-2.53 1.15-.92 2.73-.92 1.24 0 1.99.54l-.28 3.24q-.09.32-.25.45-.17.13-.45.13-.26 0-.78-.09-.51-.09-1-.09-.72 0-1.28.21t-1.01.61q-.44.39-.79.95-.34.56-.63 1.28v11.06h-4.33v-17.96h2.54q.67 0 .93.24t.35.85m12.65 5.83h8.16q0-.84-.24-1.59-.24-.74-.71-1.3t-1.2-.88q-.72-.33-1.69-.33-1.87 0-2.95 1.07-1.07 1.07-1.37 3.03m11.03 2.6H175.4q.11 1.39.49 2.39.39 1.01 1.02 1.67.63.65 1.49.98.87.32 1.92.32t1.81-.25q.76-.24 1.33-.54t1-.54q.43-.25.83-.25.54 0 .81.41l1.24 1.57q-.72.84-1.61 1.41t-1.87.91q-.97.34-1.97.48-1.01.14-1.95.14-1.88 0-3.49-.62t-2.8-1.84q-1.19-1.21-1.87-3.01-.68-1.79-.68-4.15 0-1.84.59-3.46.6-1.62 1.71-2.82t2.71-1.9 3.62-.7q1.69 0 3.13.55 1.43.54 2.47 1.58 1.03 1.04 1.61 2.56.59 1.51.59 3.45 0 .98-.21 1.32t-.8.34m12.89-9.52h4.34v17.96h-4.34zm4.94-5.23q0 .56-.23 1.05t-.6.86q-.38.37-.89.59-.5.21-1.08.21-.56 0-1.06-.21-.5-.22-.87-.59-.36-.37-.58-.86t-.22-1.05q0-.58.22-1.08.22-.51.58-.88.37-.37.87-.58.5-.22 1.06-.22.58 0 1.08.22.51.21.89.58.37.37.6.88.23.5.23 1.08m7.56 6.02.3 1.42q.54-.54 1.14-1.01.61-.46 1.28-.78.67-.33 1.44-.51.77-.19 1.68-.19 1.47 0 2.61.5t1.9 1.4 1.15 2.16q.4 1.25.4 2.75v11.43h-4.32v-11.43q0-1.64-.76-2.54-.75-.91-2.29-.91-1.12 0-2.1.51t-1.85 1.38v12.99h-4.33v-17.96h2.65q.84 0 1.1.79m39.83-5.76-1.17 2.23q-.21.36-.45.53t-.59.17q-.36 0-.79-.27-.43-.28-1.03-.61-.59-.33-1.39-.6-.79-.27-1.88-.27-.98 0-1.71.23-.74.24-1.24.66t-.74 1.01q-.25.58-.25 1.28 0 .89.5 1.49.5.59 1.32 1.01.83.42 1.88.76 1.05.33 2.15.71 1.1.37 2.15.87t1.87 1.26q.83.76 1.32 1.86.5 1.11.5 2.68 0 1.72-.58 3.21-.59 1.5-1.72 2.61t-2.75 1.75q-1.63.64-3.73.64-1.21 0-2.38-.24-1.17-.23-2.25-.67t-2.02-1.05q-.95-.61-1.68-1.37l1.38-2.25q.18-.25.46-.41.28-.17.59-.17.44 0 .95.36.5.36 1.2.79.7.44 1.64.8t2.25.36q2.01 0 3.11-.95 1.11-.96 1.11-2.74 0-1-.5-1.63t-1.32-1.06q-.83-.43-1.88-.73-1.05-.29-2.13-.64-1.09-.35-2.14-.84t-1.87-1.28-1.32-1.97-.5-2.91q0-1.39.55-2.7t1.6-2.33q1.05-1.01 2.59-1.62 1.54-.62 3.54-.62 2.24 0 4.13.7t3.22 1.96m8.19 10.22v8.05q.73.9 1.6 1.26.87.37 1.88.37.98 0 1.77-.37.79-.36 1.34-1.12.55-.75.85-1.89.29-1.15.29-2.71 0-1.57-.25-2.67-.25-1.09-.73-1.77-.47-.69-1.14-1-.68-.32-1.53-.32-1.35 0-2.3.57-.94.57-1.78 1.6m-.58-4.46.35 1.66q1.1-1.24 2.5-2.01t3.29-.77q1.47 0 2.69.61 1.22.62 2.1 1.78t1.36 2.87q.49 1.71.49 3.91 0 2.01-.55 3.73-.54 1.71-1.55 2.97-1 1.26-2.43 1.97-1.42.71-3.19.71-1.51 0-2.57-.46-1.07-.47-1.91-1.29v7.35h-4.32v-23.82h2.64q.84 0 1.1.79m25.62 12.53v-3.03q-1.87.09-3.15.33-1.28.23-2.05.6t-1.1.86-.33 1.07q0 1.13.67 1.62.68.49 1.76.49 1.33 0 2.3-.48t1.9-1.46m-9.13-9.43-.77-1.38q3.09-2.84 7.45-2.84 1.58 0 2.82.52 1.24.51 2.1 1.43t1.3 2.2q.45 1.28.45 2.8v11.34h-1.96q-.61 0-.95-.18-.33-.19-.52-.75l-.39-1.29q-.68.61-1.33 1.07-.64.47-1.34.78-.7.32-1.5.48-.8.17-1.76.17-1.14 0-2.1-.31-.96-.3-1.66-.92-.7-.61-1.09-1.52-.38-.91-.38-2.12 0-.68.23-1.35.22-.68.74-1.29t1.34-1.15q.82-.55 2.02-.95t2.79-.65q1.59-.26 3.64-.31v-1.05q0-1.8-.77-2.67t-2.22-.87q-1.05 0-1.74.25-.69.24-1.22.55-.52.31-.95.55-.43.25-.96.25-.45 0-.77-.24-.31-.24-.5-.55m17.55-3.89h4.34v17.96h-4.34zm4.93-5.23q0 .56-.22 1.05-.23.49-.61.86-.37.37-.88.59-.51.21-1.09.21-.56 0-1.06-.21-.49-.22-.86-.59t-.59-.86-.22-1.05q0-.58.22-1.08.22-.51.59-.88t.86-.58q.5-.22 1.06-.22.58 0 1.09.22.51.21.88.58.38.37.61.88.22.5.22 1.08m7.56 6.02.3 1.42q.54-.54 1.15-1.01.6-.46 1.27-.78.68-.33 1.45-.51.77-.19 1.68-.19 1.47 0 2.61.5 1.13.5 1.89 1.4.77.9 1.16 2.16.39 1.25.39 2.75v11.43h-4.32v-11.43q0-1.64-.75-2.54-.75-.91-2.29-.91-1.12 0-2.1.51t-1.86 1.38v12.99h-4.32v-17.96h2.64q.84 0 1.1.79"/></svg>